<svg width="20" height="21" viewBox="0 0 20 21" fill="none" xmlns="http://www.w3.org/2000/svg">
<path d="M16.25 6.4375H14.0625V4.875C14.0625 3.79756 13.6345 2.76425 12.8726 2.00238C12.1108 1.24051 11.0774 0.8125 10 0.8125C8.92256 0.8125 7.88925 1.24051 7.12738 2.00238C6.36551 2.76425 5.9375 3.79756 5.9375 4.875V6.4375H3.75C3.3356 6.4375 2.93817 6.60212 2.64515 6.89515C2.35212 7.18817 2.1875 7.5856 2.1875 8V16.75C2.1875 17.1644 2.35212 17.5618 2.64515 17.8549C2.93817 18.1479 3.3356 18.3125 3.75 18.3125H16.25C16.6644 18.3125 17.0618 18.1479 17.3549 17.8549C17.6479 17.5618 17.8125 17.1644 17.8125 16.75V8C17.8125 7.5856 17.6479 7.18817 17.3549 6.89515C17.0618 6.60212 16.6644 6.4375 16.25 6.4375ZM7.8125 4.875C7.8125 4.29484 8.04297 3.73844 8.4532 3.3282C8.86344 2.91797 9.41984 2.6875 10 2.6875C10.5802 2.6875 11.1366 2.91797 11.5468 3.3282C11.957 3.73844 12.1875 4.29484 12.1875 4.875V6.4375H7.8125V4.875ZM15.9375 16.4375H4.0625V8.3125H15.9375V16.4375Z" fill="#475569"/>
</svg>
