<svg width="20" height="21" viewBox="0 0 20 21" fill="none" xmlns="http://www.w3.org/2000/svg">
<path d="M4.44369 2.99455C4.36136 2.90174 4.26143 2.8262 4.14969 2.7723C4.03795 2.7184 3.91662 2.68722 3.79274 2.68055C3.66886 2.67389 3.54489 2.69188 3.42801 2.73348C3.31114 2.77508 3.20368 2.83946 3.11187 2.9229C3.02006 3.00634 2.94572 3.10716 2.89316 3.21954C2.84061 3.33192 2.81088 3.45361 2.8057 3.57756C2.80052 3.70152 2.81999 3.82526 2.86299 3.94163C2.90599 4.058 2.97166 4.16468 3.05619 4.25549L4.30619 5.63439C1.61478 7.42658 0.446816 9.99846 0.390566 10.1195C0.337638 10.2395 0.310303 10.3693 0.310303 10.5004C0.310303 10.6316 0.337638 10.7613 0.390566 10.8813C0.419472 10.9453 1.10385 12.4641 2.61635 13.9758C4.63822 15.9953 7.18744 17.0625 9.99994 17.0625C11.3668 17.0701 12.7215 16.8045 13.9843 16.2813L15.5538 18.0078C15.7219 18.1884 15.9544 18.2954 16.2009 18.3057C16.4474 18.316 16.688 18.2288 16.8706 18.0628C17.0531 17.8969 17.1629 17.6657 17.1762 17.4194C17.1894 17.1731 17.1051 16.9314 16.9413 16.7469L4.44369 2.99455ZM9.99994 15.1875C7.68822 15.1875 5.66635 14.3492 3.99135 12.6969C3.33248 12.0445 2.76555 11.3054 2.30619 10.5C2.71791 9.77267 3.77416 8.16408 5.58744 7.03986L12.6257 14.7828C11.7769 15.0539 10.891 15.1904 9.99994 15.1875ZM19.6093 10.8813C19.5812 10.9445 18.9062 12.4438 17.4218 13.9406C17.3368 14.035 17.2335 14.1111 17.1182 14.1643C17.0029 14.2175 16.878 14.2468 16.7511 14.2503C16.6241 14.2538 16.4978 14.2315 16.3798 14.1847C16.2617 14.1378 16.1544 14.0675 16.0643 13.978C15.9743 13.8885 15.9033 13.7816 15.8558 13.6638C15.8083 13.546 15.7853 13.4198 15.788 13.2929C15.7907 13.1659 15.8193 13.0408 15.8718 12.9252C15.9244 12.8096 15.9998 12.7059 16.0937 12.6203C16.7172 11.9864 17.2551 11.2735 17.6937 10.5C17.2346 9.69443 16.6676 8.95531 16.0085 8.30314C14.3328 6.6508 12.3117 5.81252 9.99994 5.81252C9.73822 5.81252 9.4765 5.82346 9.21869 5.84533C9.09445 5.85864 8.9688 5.84698 8.84914 5.81104C8.72947 5.77509 8.61819 5.71559 8.52185 5.63602C8.42551 5.55646 8.34604 5.45844 8.28812 5.34772C8.23021 5.237 8.195 5.11583 8.18459 4.99131C8.17417 4.8668 8.18875 4.74145 8.22747 4.62265C8.26619 4.50385 8.32827 4.39399 8.41006 4.29953C8.49184 4.20506 8.59169 4.1279 8.70372 4.07257C8.81575 4.01725 8.93772 3.98488 9.06244 3.97736C9.36947 3.9508 9.68744 3.93752 9.99994 3.93752C12.8124 3.93752 15.3617 5.00549 17.382 7.02502C18.8937 8.53674 19.5781 10.0563 19.607 10.1195C19.6603 10.2394 19.688 10.369 19.6884 10.5002C19.6888 10.6313 19.6619 10.7611 19.6093 10.8813Z" fill="#CBD5E1"/>
</svg>
